<svg xmlns="http://www.w3.org/2000/svg" viewBox="0 0 216.22 213.65"><defs><style>.cls-1{fill:#a3d6b4;}.cls-2{fill:#fff;}.cls-3,.cls-4,.cls-5{fill:#229b5c;}.cls-3{opacity:0.76;}.cls-4{opacity:0.51;}</style></defs><g id="Layer_2" data-name="Layer 2"><g id="Layer_1-2" data-name="Layer 1"><rect class="cls-1" x="72.81" y="76.31" width="71.45" height="69" rx="34.5"/><circle class="cls-2" cx="30.73" cy="119.2" r="20.5"/><ellipse class="cls-3" cx="30.72" cy="119.2" rx="20.51" ry="20.5"/><circle class="cls-2" cx="24.13" cy="181.07" r="24.13"/><circle class="cls-4" cx="24.13" cy="181.07" r="24.13"/><path class="cls-5" d="M134.27,3A106.78,106.78,0,0,0,30.41,34.86C18.14,48.3,24.74,70,42.37,74.48h0a24,24,0,0,0,23.71-7,58.49,58.49,0,1,1,28.84,96l-.07,0A7.27,7.27,0,0,0,86,168.7l-8.34,32.77a7.24,7.24,0,0,0,5.2,8.81l.16,0A106.8,106.8,0,1,0,134.27,3Z"/><ellipse class="cls-5" cx="89.83" cy="187.17" rx="23.4" ry="24.2"/></g></g></svg>